<svg width="133" height="58" viewBox="0 0 133 58" fill="none" xmlns="http://www.w3.org/2000/svg">
<path d="M11.5731 22.8676C9.69704 24.5608 7.90485 25.4053 6.19652 25.4013C4.79028 25.3979 3.63194 24.9577 2.7215 24.0806C1.81127 23.1931 1.36893 22.0776 1.3945 20.7341C1.42977 18.8803 2.23286 17.4605 3.80377 16.4748C5.38529 15.4788 7.63438 14.9842 10.551 14.9912L11.2698 14.993L11.3087 12.9464C11.3462 10.9781 10.3389 9.9914 8.2868 9.98648C6.69305 9.98266 4.94396 10.4784 3.03952 11.4737L3.08798 8.92728C5.17694 8.08865 7.13809 7.67154 8.97141 7.67593C10.8568 7.68045 12.2392 8.116 13.1186 8.98258C13.9982 9.83874 14.4209 11.1625 14.3868 12.9538L14.2406 20.6399C14.2071 22.4 14.732 23.2814 15.8153 23.284C15.9508 23.2843 16.1491 23.264 16.4103 23.2229L16.5966 24.9263C15.8924 25.2579 15.1184 25.4226 14.2746 25.4206C12.8371 25.4172 11.9366 24.5662 11.5731 22.8676ZM11.1518 21.195L11.2353 16.8051L10.2515 16.7715C8.5432 16.7674 7.15695 17.0818 6.09278 17.7145C5.03903 18.3473 4.50214 19.1897 4.48213 20.2416C4.46806 20.981 4.71658 21.6066 5.2277 22.1181C5.73882 22.6297 6.36938 22.8864 7.11938 22.8882C8.40063 22.8913 9.74476 22.3268 11.1518 21.195ZM20.4695 25.0449L20.7924 8.07923L23.8705 8.08661L23.8098 11.2735C25.48 8.90285 27.4922 7.72034 29.8464 7.72599C31.3255 7.72953 32.4885 8.20101 33.3352 9.14041C34.1926 10.0694 34.6063 11.3202 34.5764 12.8929L34.3445 25.0782L31.2664 25.0708L31.4792 13.8853C31.5032 12.6251 31.3328 11.729 30.9679 11.197C30.6136 10.6545 30.0094 10.3823 29.1552 10.3802C27.2698 10.3757 25.4703 11.6056 23.7566 14.0699L23.5477 25.0523L20.4695 25.0449ZM49.1355 22.9577C47.2594 24.6509 45.4672 25.4954 43.7589 25.4913C42.3527 25.4879 41.1943 25.0477 40.2839 24.1707C39.3737 23.2832 38.9313 22.1677 38.9569 20.8242C38.9922 18.9704 39.7953 17.5506 41.3662 16.5649C42.9477 15.5688 45.1968 15.0743 48.1134 15.0813L48.8322 15.083L48.8711 13.0365C48.9086 11.0681 47.9013 10.0815 45.8492 10.0765C44.2554 10.0727 42.5064 10.5685 40.6019 11.5638L40.6504 9.01734C42.7393 8.17872 44.7005 7.7616 46.5338 7.766C48.4192 7.77052 49.8016 8.20607 50.681 9.07264C51.5606 9.9288 51.9833 11.2526 51.9492 13.0439L51.803 20.73C51.7695 22.4901 52.2944 23.3714 53.3777 23.374C53.5132 23.3744 53.7115 23.354 53.9727 23.313L54.159 25.0163C53.4548 25.3479 52.6808 25.5127 51.837 25.5107C50.3995 25.5072 49.499 24.6562 49.1355 22.9577ZM48.7142 21.285L48.7977 16.8952L47.8139 16.8616C46.1056 16.8575 44.7193 17.1718 43.6552 17.8046C42.6014 18.4374 42.0645 19.2798 42.0445 20.3317C42.0304 21.0711 42.279 21.6966 42.7901 22.2082C43.3012 22.7198 43.9318 22.9764 44.6818 22.9782C45.963 22.9813 47.3072 22.4169 48.7142 21.285ZM58.0319 25.135L58.5013 0.46756L61.5794 0.474941L61.11 25.1423L58.0319 25.135ZM68.1489 31.3303L71.0163 25.1661L64.7766 8.18469L68.1047 8.19267L72.7209 20.9833L78.1516 8.21676L81.0578 8.22373L71.352 31.3379L68.1489 31.3303ZM91.5631 25.2154C90.6102 25.4735 89.7848 25.6017 89.0869 25.6C87.5244 25.5963 86.3142 25.1455 85.4562 24.2477C84.5983 23.35 84.1845 22.1043 84.2148 20.5109L84.4044 10.5439L82.2795 10.5388L82.3234 8.22676L84.4484 8.23186L84.507 5.15429L87.5908 4.86485L87.5266 8.23924L91.964 8.24988L91.92 10.562L87.4826 10.5513L87.3036 19.9559C87.2614 22.1742 88.1986 23.2857 90.1153 23.2903C90.5215 23.2913 91.0176 23.2247 91.6035 23.0908L91.5631 25.2154ZM95.9693 25.2259L96.2922 8.26026L99.3703 8.26764L99.0474 25.2333L95.9693 25.2259ZM96.3507 5.18269L96.4093 2.10512L99.4874 2.1125L99.4288 5.19007L96.3507 5.18269ZM117.01 24.7608C115.009 25.3601 113.285 25.658 111.837 25.6546C109.545 25.6491 107.66 24.7957 106.182 23.0945C104.704 21.3932 103.99 19.2512 104.039 16.6683C104.091 13.9084 104.877 11.7595 106.396 10.2217C107.925 8.68393 110.028 7.91824 112.705 7.92466C114.028 7.92783 115.504 8.11364 117.133 8.48208L117.084 11.0597C115.354 10.5452 113.942 10.2867 112.848 10.2841C111.265 10.2803 109.988 10.8709 109.017 12.0559C108.047 13.2305 107.543 14.802 107.506 16.7704C107.469 18.6763 107.93 20.2188 108.886 21.3981C109.843 22.5773 111.113 23.1688 112.697 23.1726C114.103 23.1759 115.558 22.8201 117.061 22.1051L117.01 24.7608ZM121.012 24.6923L121.066 21.8647C123.057 22.8693 124.797 23.3734 126.287 23.377C127.172 23.3791 127.911 23.1414 128.504 22.6637C129.096 22.186 129.399 21.5878 129.413 20.8692C129.433 19.8173 128.632 18.9457 127.01 18.2544L125.227 17.4846C122.592 16.3743 121.294 14.7829 121.334 12.7103C121.362 11.2314 121.905 10.0714 122.962 9.23033C124.031 8.37884 125.476 7.95528 127.299 7.95965C128.247 7.96193 129.417 8.09492 130.807 8.35864L131.446 8.48515L131.397 11.0472C129.688 10.5327 128.323 10.2743 127.302 10.2718C126.406 10.2697 125.684 10.4659 125.135 10.8603C124.596 11.2444 124.32 11.7645 124.308 12.4206C124.29 13.3475 125.025 14.1304 126.513 14.7693L127.986 15.3978C129.649 16.11 130.823 16.8627 131.506 17.6559C132.189 18.4387 132.519 19.4185 132.496 20.5954C132.468 22.0847 131.856 23.307 130.661 24.2624C129.466 25.2177 127.951 25.6932 126.118 25.6888C124.712 25.6854 123.01 25.3533 121.012 24.6923Z" fill="white"/>
<path d="M10.9643 54.8618C9.08824 56.555 7.29605 57.3996 5.58772 57.3955C4.18148 57.3921 3.02314 56.9519 2.1127 56.0748C1.20247 55.1873 0.760131 54.0718 0.785696 52.7283C0.820971 50.8745 1.62406 49.4547 3.19497 48.4691C4.77649 47.473 7.02558 46.9784 9.94224 46.9854L10.661 46.9872L10.6999 44.9407C10.7374 42.9723 9.73007 41.9856 7.67799 41.9807C6.08425 41.9769 4.33516 42.4726 2.43072 43.4679L2.47918 40.9215C4.56814 40.0829 6.52928 39.6657 8.36261 39.6701C10.248 39.6747 11.6304 40.1102 12.5098 40.9768C13.3894 41.8329 13.8121 43.1567 13.778 44.948L13.6318 52.6341C13.5983 54.3942 14.1232 55.2756 15.2065 55.2782C15.342 55.2785 15.5403 55.2582 15.8015 55.2171L15.9878 56.9205C15.2836 57.2521 14.5096 57.4169 13.6658 57.4148C12.2283 57.4114 11.3278 56.5604 10.9643 54.8618ZM10.543 53.1892L10.6265 48.7993L9.64272 48.7657C7.9344 48.7616 6.54815 49.076 5.48398 49.7088C4.43022 50.3416 3.89334 51.1839 3.87332 52.2358C3.85925 52.9752 4.10778 53.6008 4.6189 54.1123C5.13002 54.6239 5.76058 54.8806 6.51058 54.8824C7.79182 54.8855 9.13596 54.3211 10.543 53.1892ZM30.4701 57.0645L30.5307 53.8776C28.8499 56.2587 26.8429 57.4464 24.5095 57.4408C23.0304 57.4373 21.8621 56.971 21.0048 56.042C20.1476 55.1026 19.7341 53.8413 19.7642 52.2583L19.9961 40.073L23.0742 40.0804L22.8613 51.2658C22.8372 52.5364 23.0022 53.443 23.3565 53.9854C23.7214 54.5175 24.3361 54.7845 25.2007 54.7866C27.0757 54.7911 28.87 53.5612 30.5836 51.0969L30.7929 40.0989L33.871 40.1063L33.5482 57.0719L30.4701 57.0645ZM39.7357 57.0868L40.0585 40.1211L43.1366 40.1285L43.076 43.3154C44.3399 40.9437 46.1333 39.7607 48.4562 39.7663C48.7687 39.767 49.0964 39.7938 49.4391 39.8467L49.3844 42.7212C48.8566 42.5429 48.3895 42.4533 47.9832 42.4523C46.0353 42.4476 44.3831 43.5997 43.0266 45.9087L42.8138 57.0941L39.7357 57.0868ZM61.6204 54.9833C59.7443 56.6765 57.9522 57.521 56.2438 57.5169C54.8376 57.5135 53.6792 57.0733 52.7688 56.1963C51.8586 55.3088 51.4162 54.1933 51.4418 52.8498C51.4771 50.996 52.2802 49.5762 53.8511 48.5905C55.4326 47.5944 57.6817 47.0999 60.5983 47.1069L61.3171 47.1086L61.356 45.0621C61.3935 43.0937 60.3862 42.1071 58.3341 42.1021C56.7404 42.0983 54.9913 42.5941 53.0868 43.5894L53.1353 41.0429C55.2242 40.2043 57.1854 39.7872 59.0187 39.7916C60.9041 39.7961 62.2865 40.2317 63.1659 41.0982C64.0455 41.9544 64.4682 43.2782 64.4341 45.0695L64.2879 52.7556C64.2544 54.5157 64.7793 55.3971 65.8626 55.3996C65.9981 55.4 66.1964 55.3796 66.4576 55.3386L66.6439 57.0419C65.9397 57.3735 65.1657 57.5383 64.3219 57.5363C62.8844 57.5328 61.9839 56.6818 61.6204 54.9833ZM61.1991 53.3106L61.2826 48.9208L60.2988 48.8872C58.5905 48.8831 57.2043 49.1974 56.1401 49.8302C55.0863 50.463 54.5494 51.3054 54.5294 52.3573C54.5154 53.0967 54.7639 53.7222 55.275 54.2338C55.7861 54.7454 56.4167 55.0021 57.1667 55.0038C58.4479 55.0069 59.7921 54.4425 61.1991 53.3106Z" fill="#BFBFBF"/>
</svg>
