<svg width="32" height="32" viewBox="0 0 32 32" fill="none" xmlns="http://www.w3.org/2000/svg">
<path d="M14.9375 16.0187L6.43745 7.51875C5.84995 6.93125 5.84995 5.98125 6.43745 5.4L7.84995 3.9875C8.43745 3.4 9.38745 3.4 9.9687 3.9875L15.9937 10.0125L22.0187 3.9875C22.6062 3.4 23.5562 3.4 24.1375 3.9875L25.5625 5.39375C26.15 5.98125 26.15 6.93125 25.5625 7.5125L17.0625 16.0125C16.475 16.6062 15.525 16.6062 14.9375 16.0187ZM17.0625 28.0187L25.5625 19.5187C26.15 18.9312 26.15 17.9812 25.5625 17.4L24.15 15.9875C23.5625 15.4 22.6124 15.4 22.0312 15.9875L16 22.0062L9.97495 15.9812C9.38745 15.3937 8.43745 15.3937 7.8562 15.9812L6.43745 17.3937C5.84995 17.9812 5.84995 18.9312 6.43745 19.5125L14.9375 28.0125C15.525 28.6062 16.475 28.6062 17.0625 28.0187Z" fill="#272FD8"/>
</svg>
