<svg width="136" height="65" viewBox="0 0 136 65" fill="none" xmlns="http://www.w3.org/2000/svg">
<path d="M12.5731 24.8676C10.697 26.5608 8.90485 27.4053 7.19652 27.4013C5.79028 27.3979 4.63194 26.9577 3.7215 26.0806C2.81127 25.1931 2.36893 24.0776 2.3945 22.7341C2.42977 20.8803 3.23286 19.4605 4.80377 18.4748C6.38529 17.4788 8.63438 16.9842 11.551 16.9912L12.2698 16.993L12.3087 14.9464C12.3462 12.9781 11.3389 11.9914 9.2868 11.9865C7.69305 11.9827 5.94396 12.4784 4.03952 13.4737L4.08798 10.9273C6.17694 10.0887 8.13809 9.67154 9.97141 9.67593C11.8568 9.68045 13.2392 10.116 14.1186 10.9826C14.9982 11.8387 15.4209 13.1625 15.3868 14.9538L15.2406 22.6399C15.2071 24.4 15.732 25.2814 16.8153 25.284C16.9508 25.2843 17.1491 25.264 17.4103 25.2229L17.5966 26.9263C16.8924 27.2579 16.1184 27.4226 15.2746 27.4206C13.8371 27.4172 12.9366 26.5662 12.5731 24.8676ZM12.1518 23.195L12.2353 18.8051L11.2515 18.7715C9.5432 18.7674 8.15695 19.0818 7.09278 19.7145C6.03903 20.3473 5.50214 21.1897 5.48213 22.2416C5.46806 22.981 5.71658 23.6066 6.2277 24.1181C6.73882 24.6297 7.36938 24.8864 8.11938 24.8882C9.40063 24.8913 10.7448 24.3268 12.1518 23.195ZM21.4695 27.0449L21.7924 10.0792L24.8705 10.0866L24.8098 13.2735C26.48 10.9029 28.4922 9.72034 30.8464 9.72599C32.3255 9.72953 33.4885 10.201 34.3352 11.1404C35.1926 12.0694 35.6063 13.3202 35.5764 14.8929L35.3445 27.0782L32.2664 27.0708L32.4792 15.8853C32.5032 14.6251 32.3328 13.729 31.9679 13.197C31.6136 12.6545 31.0094 12.3823 30.1552 12.3802C28.2698 12.3757 26.4703 13.6056 24.7566 16.0699L24.5477 27.0523L21.4695 27.0449ZM50.1355 24.9577C48.2594 26.6509 46.4672 27.4954 44.7589 27.4913C43.3527 27.4879 42.1943 27.0477 41.2839 26.1707C40.3737 25.2832 39.9313 24.1677 39.9569 22.8242C39.9922 20.9704 40.7953 19.5506 42.3662 18.5649C43.9477 17.5688 46.1968 17.0743 49.1134 17.0813L49.8322 17.083L49.8711 15.0365C49.9086 13.0681 48.9013 12.0815 46.8492 12.0765C45.2554 12.0727 43.5064 12.5685 41.6019 13.5638L41.6504 11.0173C43.7393 10.1787 45.7005 9.7616 47.5338 9.766C49.4192 9.77052 50.8016 10.2061 51.681 11.0726C52.5606 11.9288 52.9833 13.2526 52.9492 15.0439L52.803 22.73C52.7695 24.4901 53.2944 25.3714 54.3777 25.374C54.5132 25.3744 54.7115 25.354 54.9727 25.313L55.159 27.0163C54.4548 27.3479 53.6808 27.5127 52.837 27.5107C51.3995 27.5072 50.499 26.6562 50.1355 24.9577ZM49.7142 23.285L49.7977 18.8952L48.8139 18.8616C47.1056 18.8575 45.7193 19.1718 44.6552 19.8046C43.6014 20.4374 43.0645 21.2798 43.0445 22.3317C43.0304 23.0711 43.279 23.6966 43.7901 24.2082C44.3012 24.7198 44.9318 24.9764 45.6818 24.9782C46.963 24.9813 48.3072 24.4169 49.7142 23.285ZM59.0319 27.135L59.5013 2.46756L62.5794 2.47494L62.11 27.1423L59.0319 27.135ZM69.1489 33.3303L72.0163 27.1661L65.7766 10.1847L69.1047 10.1927L73.7209 22.9833L79.1516 10.2168L82.0578 10.2237L72.352 33.3379L69.1489 33.3303ZM92.5631 27.2154C91.6102 27.4735 90.7848 27.6017 90.0869 27.6C88.5244 27.5963 87.3142 27.1455 86.4562 26.2477C85.5983 25.35 85.1845 24.1043 85.2148 22.5109L85.4044 12.5439L83.2795 12.5388L83.3234 10.2268L85.4484 10.2319L85.507 7.15429L88.5908 6.86485L88.5266 10.2392L92.964 10.2499L92.92 12.562L88.4826 12.5513L88.3036 21.9559C88.2614 24.1742 89.1986 25.2857 91.1153 25.2903C91.5215 25.2913 92.0176 25.2247 92.6035 25.0908L92.5631 27.2154ZM96.9693 27.2259L97.2922 10.2603L100.37 10.2676L100.047 27.2333L96.9693 27.2259ZM97.3507 7.18269L97.4093 4.10512L100.487 4.1125L100.429 7.19007L97.3507 7.18269ZM118.01 26.7608C116.009 27.3601 114.285 27.658 112.837 27.6546C110.545 27.6491 108.66 26.7957 107.182 25.0945C105.704 23.3932 104.99 21.2512 105.039 18.6683C105.091 15.9084 105.877 13.7595 107.396 12.2217C108.925 10.6839 111.028 9.91824 113.705 9.92466C115.028 9.92783 116.504 10.1136 118.133 10.4821L118.084 13.0597C116.354 12.5452 114.942 12.2867 113.848 12.2841C112.265 12.2803 110.988 12.8709 110.017 14.0559C109.047 15.2305 108.543 16.802 108.506 18.7704C108.469 20.6763 108.93 22.2188 109.886 23.3981C110.843 24.5773 112.113 25.1688 113.697 25.1726C115.103 25.1759 116.558 24.8201 118.061 24.1051L118.01 26.7608ZM122.012 26.6923L122.066 23.8647C124.057 24.8693 125.797 25.3734 127.287 25.377C128.172 25.3791 128.911 25.1414 129.504 24.6637C130.096 24.186 130.399 23.5878 130.413 22.8692C130.433 21.8173 129.632 20.9457 128.01 20.2544L126.227 19.4846C123.592 18.3743 122.294 16.7829 122.334 14.7103C122.362 13.2314 122.905 12.0714 123.962 11.2303C125.031 10.3788 126.476 9.95528 128.299 9.95965C129.247 9.96193 130.417 10.0949 131.807 10.3586L132.446 10.4852L132.397 13.0472C130.688 12.5327 129.323 12.2743 128.302 12.2718C127.406 12.2697 126.684 12.4659 126.135 12.8603C125.596 13.2444 125.32 13.7645 125.308 14.4206C125.29 15.3475 126.025 16.1304 127.513 16.7693L128.986 17.3978C130.649 18.11 131.823 18.8627 132.506 19.6559C133.189 20.4387 133.519 21.4185 133.496 22.5954C133.468 24.0847 132.856 25.307 131.661 26.2624C130.466 27.2177 128.951 27.6932 127.118 27.6888C125.712 27.6854 124.01 27.3533 122.012 26.6923Z" fill="white"/>
<path d="M11.9643 56.8618C10.0882 58.555 8.29605 59.3996 6.58772 59.3955C5.18148 59.3921 4.02314 58.9519 3.1127 58.0748C2.20247 57.1873 1.76013 56.0718 1.7857 54.7283C1.82097 52.8745 2.62406 51.4547 4.19497 50.4691C5.77649 49.473 8.02558 48.9784 10.9422 48.9854L11.661 48.9872L11.6999 46.9407C11.7374 44.9723 10.7301 43.9856 8.67799 43.9807C7.08425 43.9769 5.33516 44.4726 3.43072 45.4679L3.47918 42.9215C5.56814 42.0829 7.52928 41.6657 9.36261 41.6701C11.248 41.6747 12.6304 42.1102 13.5098 42.9768C14.3894 43.8329 14.8121 45.1567 14.778 46.948L14.6318 54.6341C14.5983 56.3942 15.1232 57.2756 16.2065 57.2782C16.342 57.2785 16.5403 57.2582 16.8015 57.2171L16.9878 58.9205C16.2836 59.2521 15.5096 59.4169 14.6658 59.4148C13.2283 59.4114 12.3278 58.5604 11.9643 56.8618ZM11.543 55.1892L11.6265 50.7993L10.6427 50.7657C8.9344 50.7616 7.54815 51.076 6.48398 51.7088C5.43022 52.3416 4.89334 53.1839 4.87332 54.2358C4.85925 54.9752 5.10778 55.6008 5.6189 56.1123C6.13002 56.6239 6.76058 56.8806 7.51058 56.8824C8.79182 56.8855 10.136 56.3211 11.543 55.1892ZM31.4701 59.0645L31.5307 55.8776C29.8499 58.2587 27.8429 59.4464 25.5095 59.4408C24.0304 59.4373 22.8621 58.971 22.0048 58.042C21.1476 57.1026 20.7341 55.8413 20.7642 54.2583L20.9961 42.073L24.0742 42.0804L23.8613 53.2658C23.8372 54.5364 24.0022 55.443 24.3565 55.9854C24.7214 56.5175 25.3361 56.7845 26.2007 56.7866C28.0757 56.7911 29.87 55.5612 31.5836 53.0969L31.7929 42.0989L34.871 42.1063L34.5482 59.0719L31.4701 59.0645ZM40.7357 59.0868L41.0585 42.1211L44.1366 42.1285L44.076 45.3154C45.3399 42.9437 47.1333 41.7607 49.4562 41.7663C49.7687 41.767 50.0964 41.7938 50.4391 41.8467L50.3844 44.7212C49.8566 44.5429 49.3895 44.4533 48.9832 44.4523C47.0353 44.4476 45.3831 45.5997 44.0266 47.9087L43.8138 59.0941L40.7357 59.0868ZM62.6204 56.9833C60.7443 58.6765 58.9522 59.521 57.2438 59.5169C55.8376 59.5135 54.6792 59.0733 53.7688 58.1963C52.8586 57.3088 52.4162 56.1933 52.4418 54.8498C52.4771 52.996 53.2802 51.5762 54.8511 50.5905C56.4326 49.5944 58.6817 49.0999 61.5983 49.1069L62.3171 49.1086L62.356 47.0621C62.3935 45.0937 61.3862 44.1071 59.3341 44.1021C57.7404 44.0983 55.9913 44.5941 54.0868 45.5894L54.1353 43.0429C56.2242 42.2043 58.1854 41.7872 60.0187 41.7916C61.9041 41.7961 63.2865 42.2317 64.1659 43.0982C65.0455 43.9544 65.4682 45.2782 65.4341 47.0695L65.2879 54.7556C65.2544 56.5157 65.7793 57.3971 66.8626 57.3996C66.9981 57.4 67.1964 57.3796 67.4576 57.3386L67.6439 59.0419C66.9397 59.3735 66.1657 59.5383 65.3219 59.5363C63.8844 59.5328 62.9839 58.6818 62.6204 56.9833ZM62.1991 55.3106L62.2826 50.9208L61.2988 50.8872C59.5905 50.8831 58.2043 51.1974 57.1401 51.8302C56.0863 52.463 55.5494 53.3054 55.5294 54.3573C55.5154 55.0967 55.7639 55.7222 56.275 56.2338C56.7861 56.7454 57.4167 57.0021 58.1667 57.0038C59.4479 57.0069 60.7921 56.4425 62.1991 55.3106Z" fill="#BFBFBF"/>
</svg>
