<svg width="22" height="26" viewBox="0 0 22 26" fill="none" xmlns="http://www.w3.org/2000/svg">
<path d="M9.93745 13.0187L1.43745 4.51875C0.849951 3.93125 0.849951 2.98125 1.43745 2.4L2.84995 0.9875C3.43745 0.4 4.38745 0.4 4.9687 0.9875L10.9937 7.0125L17.0187 0.9875C17.6062 0.4 18.5562 0.4 19.1375 0.9875L20.5625 2.39375C21.15 2.98125 21.15 3.93125 20.5625 4.5125L12.0625 13.0125C11.475 13.6062 10.525 13.6062 9.93745 13.0187ZM12.0625 25.0187L20.5625 16.5187C21.15 15.9312 21.15 14.9812 20.5625 14.4L19.15 12.9875C18.5625 12.4 17.6124 12.4 17.0312 12.9875L11 19.0062L4.97495 12.9812C4.38745 12.3937 3.43745 12.3937 2.8562 12.9812L1.43745 14.3937C0.849951 14.9812 0.849951 15.9312 1.43745 16.5125L9.93745 25.0125C10.525 25.6062 11.475 25.6062 12.0625 25.0187Z" fill="#272FD8"/>
</svg>
